<svg xmlns="http://www.w3.org/2000/svg" xmlns:xlink="http://www.w3.org/1999/xlink" width="84" height="84" viewBox="0 0 84 84" fill="none"><g opacity="1"  transform="translate(0 0)  rotate(0)"><mask id="bg-mask-0" fill="white"><use transform="translate(0 0)  rotate(NaN)" xlink:href="#path_0"></use></mask><g mask="url(#bg-mask-0)" ><path id="路径 1" fill-rule="evenodd" style="fill:#C4C4C4" opacity="1" d="M29.6984,12.9905c-3.75,1.58 -7.11,3.85 -9.99,6.75c-2.9,2.88 -5.17,6.24 -6.75,9.99c-1.64,3.87 -2.47,7.99 -2.47,12.24c0,4.24 0.83,8.36 2.47,12.23c1.58,3.75 3.85,7.11 6.75,10c2.88,2.89 6.24,5.16 9.99,6.74c3.87,1.64 7.99,2.47 12.24,2.47c4.24,0 8.36,-0.83 12.23,-2.47c3.75,-1.58 7.11,-3.85 10,-6.74c2.89,-2.89 5.16,-6.25 6.74,-10c1.64,-3.87 2.47,-7.99 2.47,-12.23c0,-4.25 -0.83,-8.37 -2.47,-12.24c-1.58,-3.75 -3.85,-7.11 -6.74,-9.99c-2.89,-2.9 -6.25,-5.17 -10,-6.75c-3.87,-1.64 -7.99,-2.47 -12.23,-2.47c-4.25,0 -8.37,0.83 -12.24,2.47zM41.9384,5.27051c20.26,0 36.69,16.42999 36.69,36.69999c0,20.26 -16.43,36.69 -36.69,36.69c-20.27,0 -36.69997,-16.43 -36.69997,-36.69c0,-20.27 16.42997,-36.69999 36.69997,-36.69999zM44.7084,39.4105h18.25v5.26h-18.25v18.2h-5.25v-18.2h-18.46v-5.26h18.46v-18.51h5.25z"></path></g></g><defs><rect id="path_0" x="0" y="0" width="84" height="84" /></defs></svg>